<svg viewBox="0 0 1180 430" xmlns="http://www.w3.org/2000/svg" role="img" aria-label="Three sources of uncertainty across the modeling workflow.">
  <style>
    text {
      font-family: "Proxima Nova", "Aptos", "Source Sans Pro", "Helvetica Neue", Arial, sans-serif;
    }
    .band-bg { fill: #f7fafb; }
    .climate .band-bg { fill: #edf7fc; }
    .regional .band-bg { fill: #edf8f9; }
    .biological .band-bg { fill: #f0f7f3; }
    .climate .band-stripe { fill: #1594d2; }
    .regional .band-stripe { fill: #007f8f; }
    .biological .band-stripe { fill: #4d8f70; }
    .band-title {
      font-size: 28px;
      font-weight: 900;
      letter-spacing: 2px;
      text-transform: uppercase;
    }
    .climate .band-title { fill: #1594d2; }
    .regional .band-title { fill: #007f8f; }
    .biological .band-title { fill: #4d8f70; }
    .connector {
      fill: none;
      stroke-width: 2.5;
      opacity: 0.8;
    }
    .climate .connector { stroke: #1594d2; }
    .regional .connector { stroke: #007f8f; }
    .biological .connector { stroke: #4d8f70; }
    .node rect {
      fill: #ffffff;
      stroke: #d8dde1;
      stroke-width: 2;
    }
    .node text {
      fill: #4e5558;
      font-size: 28px;
      font-weight: 850;
      text-anchor: middle;
    }
  </style>
  <defs>
    <marker id="arrow-blue" markerWidth="9" markerHeight="8" refX="8" refY="4" orient="auto">
      <path d="M0,0 L9,4 L0,8 Z" fill="#1594d2"/>
    </marker>
    <marker id="arrow-teal" markerWidth="9" markerHeight="8" refX="8" refY="4" orient="auto">
      <path d="M0,0 L9,4 L0,8 Z" fill="#007f8f"/>
    </marker>
    <marker id="arrow-green" markerWidth="9" markerHeight="8" refX="8" refY="4" orient="auto">
      <path d="M0,0 L9,4 L0,8 Z" fill="#4d8f70"/>
    </marker>
  </defs>
  <g class="band climate">
    <rect class="band-bg" x="0" y="0" width="1180" height="112"/>
    <rect class="band-stripe" x="0" y="0" width="10" height="112"/>
    <text class="band-title" x="42" y="67">Climate assumptions</text>
    <path class="connector" d="M545 56 H725" marker-end="url(#arrow-blue)"/>
    <path class="connector" d="M820 56 H990" marker-end="url(#arrow-blue)"/>
    <g class="node" transform="translate(430 26)"><rect width="150" height="60" rx="30"/><text x="75" y="38">Scenario</text></g>
    <g class="node" transform="translate(705 26)"><rect width="190" height="60" rx="30"/><text x="95" y="38">Climate model</text></g>
    <g class="node" transform="translate(975 26)"><rect width="150" height="60" rx="30"/><text x="75" y="38">Model run</text></g>
  </g>
  <g class="band regional" transform="translate(0 142)">
    <rect class="band-bg" x="0" y="0" width="1180" height="112"/>
    <rect class="band-stripe" x="0" y="0" width="10" height="112"/>
    <text class="band-title" x="42" y="67">Regional translation</text>
    <path class="connector" d="M575 56 H760" marker-end="url(#arrow-teal)"/>
    <path class="connector" d="M850 56 H990" marker-end="url(#arrow-teal)"/>
    <g class="node" transform="translate(430 26)"><rect width="190" height="60" rx="30"/><text x="95" y="38">Downscaling</text></g>
    <g class="node" transform="translate(745 26)"><rect width="145" height="60" rx="30"/><text x="72" y="38">Depth layer</text></g>
    <g class="node wide" transform="translate(965 26)"><rect width="185" height="60" rx="30"/><text x="92" y="38">Variable choice</text></g>
  </g>
  <g class="band biological" transform="translate(0 284)">
    <rect class="band-bg" x="0" y="0" width="1180" height="112"/>
    <rect class="band-stripe" x="0" y="0" width="10" height="112"/>
    <text class="band-title" x="42" y="67">Biological interpretation</text>
    <path class="connector" d="M535 56 H700" marker-end="url(#arrow-green)"/>
    <path class="connector" d="M820 56 H970" marker-end="url(#arrow-green)"/>
    <g class="node" transform="translate(430 26)"><rect width="135" height="60" rx="30"/><text x="68" y="38">Records</text></g>
    <g class="node" transform="translate(690 26)"><rect width="170" height="60" rx="30"/><text x="85" y="38">SDM algorithm</text></g>
    <g class="node wide" transform="translate(950 26)"><rect width="190" height="60" rx="30"/><text x="95" y="38">Conservation use</text></g>
  </g>
</svg>
